<svg width="256" height="256" viewBox="0 0 256 256" fill="none" xmlns="http://www.w3.org/2000/svg">
  <path
    d="M20 99.9991C20 79.9991 28.3333 68.3325 45 64.9991L80 59.9991C86.6667 58.6658 91.6667 60.3325 95 64.9991V84.9991H161V64.9991C164.333 60.3325 169.333 58.6658 176 59.9991L211 64.9991C227.667 68.3325 236 79.9991 236 99.9991V155.999C236 175.999 227.667 187.666 211 190.999L176 195.999C169.333 197.332 164.333 195.666 161 190.999V170.999H95V190.999C91.6667 195.666 86.6667 197.332 80 195.999L45 190.999C28.3333 187.666 20 175.999 20 155.999V99.9991Z"
    fill="#2A2E35" stroke="#3A3E45" stroke-width="2" />
  <path opacity="0.5"
    d="M40 163C44.4183 163 48 147.33 48 128C48 108.67 44.4183 93 40 93C35.5817 93 32 108.67 32 128C32 147.33 35.5817 163 40 163Z"
    fill="#252830" />
  <path opacity="0.5"
    d="M216 163C220.418 163 224 147.33 224 128C224 108.67 220.418 93 216 93C211.582 93 208 108.67 208 128C208 147.33 211.582 163 216 163Z"
    fill="#252830" />
  <path
    d="M164 64H92C89.7909 64 88 65.7909 88 68V190C88 192.209 89.7909 194 92 194H164C166.209 194 168 192.209 168 190V68C168 65.7909 166.209 64 164 64Z"
    fill="#1A1D22" />
  <path
    d="M162 70H94C92.8954 70 92 70.8954 92 72V186C92 187.105 92.8954 188 94 188H162C163.105 188 164 187.105 164 186V72C164 70.8954 163.105 70 162 70Z"
    fill="#0F1114" />
  <path
    d="M113 126C117.971 126 122 121.075 122 115C122 108.925 117.971 104 113 104C108.029 104 104 108.925 104 115C104 121.075 108.029 126 113 126Z"
    fill="#4A9EFF" />
  <path
    d="M143 126C147.971 126 152 121.075 152 115C152 108.925 147.971 104 143 104C138.029 104 134 108.925 134 115C134 121.075 138.029 126 143 126Z"
    fill="#4A9EFF" />
  <path
    d="M116 114C117.657 114 119 112.657 119 111C119 109.343 117.657 108 116 108C114.343 108 113 109.343 113 111C113 112.657 114.343 114 116 114Z"
    fill="white" />
  <path
    d="M146 114C147.657 114 149 112.657 149 111C149 109.343 147.657 108 146 108C144.343 108 143 109.343 143 111C143 112.657 144.343 114 146 114Z"
    fill="white" />
  <path opacity="0.7"
    d="M100 134C103.314 134 106 132.209 106 130C106 127.791 103.314 126 100 126C96.6863 126 94 127.791 94 130C94 132.209 96.6863 134 100 134Z"
    fill="#FF9999" />
  <path opacity="0.7"
    d="M156 134C159.314 134 162 132.209 162 130C162 127.791 159.314 126 156 126C152.686 126 150 127.791 150 130C150 132.209 152.686 134 156 134Z"
    fill="#FF9999" />
  <path d="M118 138C124.667 146 131.333 146 138 138" stroke="#4A9EFF" stroke-width="3" stroke-linecap="round" />
  <path
    d="M69 119C76.732 119 83 112.732 83 105C83 97.268 76.732 91 69 91C61.268 91 55 97.268 55 105C55 112.732 61.268 119 69 119Z"
    fill="#1A1D22" stroke="#3A3E45" />
  <path
    d="M69 115C74.5228 115 79 110.523 79 105C79 99.4772 74.5228 95 69 95C63.4772 95 59 99.4772 59 105C59 110.523 63.4772 115 69 115Z"
    fill="#252830" />
  <path
    d="M187 119C194.732 119 201 112.732 201 105C201 97.268 194.732 91 187 91C179.268 91 173 97.268 173 105C173 112.732 179.268 119 187 119Z"
    fill="#1A1D22" stroke="#3A3E45" />
  <path
    d="M187 115C192.523 115 197 110.523 197 105C197 99.4772 192.523 95 187 95C181.477 95 177 99.4772 177 105C177 110.523 181.477 115 187 115Z"
    fill="#252830" />
  <path
    d="M219 94C221.209 94 223 92.2091 223 90C223 87.7909 221.209 86 219 86C216.791 86 215 87.7909 215 90C215 92.2091 216.791 94 219 94Z"
    fill="#3A3E45" />
  <path
    d="M226 100C228.209 100 230 98.2091 230 96C230 93.7909 228.209 92 226 92C223.791 92 222 93.7909 222 96C222 98.2091 223.791 100 226 100Z"
    fill="#3A3E45" />
  <path
    d="M219 106C221.209 106 223 104.209 223 102C223 99.7909 221.209 98 219 98C216.791 98 215 99.7909 215 102C215 104.209 216.791 106 219 106Z"
    fill="#3A3E45" />
  <path
    d="M212 100C214.209 100 216 98.2091 216 96C216 93.7909 214.209 92 212 92C209.791 92 208 93.7909 208 96C208 98.2091 209.791 100 212 100Z"
    fill="#3A3E45" />
  <path
    d="M43 92H27C26.4477 92 26 92.398 26 92.8889V99.1111C26 99.602 26.4477 100 27 100H43C43.5523 100 44 99.602 44 99.1111V92.8889C44 92.398 43.5523 92 43 92Z"
    fill="#3A3E45" />
  <path
    d="M38.1111 87H31.8889C31.398 87 31 87.4477 31 88V104C31 104.552 31.398 105 31.8889 105H38.1111C38.602 105 39 104.552 39 104V88C39 87.4477 38.602 87 38.1111 87Z"
    fill="#3A3E45" />
  <path d="M75 45L77 40L79 45L84 47L79 49L77 54L75 49L70 47L75 45Z" fill="#FFD93D" />
  <path d="M181 45L183 40L185 45L190 47L185 49L183 54L181 49L176 47L181 45Z" fill="#FFD93D" />
  <path d="M128 35L130 28L132 35L139 37L132 39L130 46L128 39L121 37L128 35Z" fill="#FF9999" />
  <rect x="43" y="133" width="24" height="24" rx="4" fill="#1A1D22" stroke="#3A3E45" />
  <rect x="189" y="133" width="24" height="24" rx="4" fill="#1A1D22" stroke="#3A3E45" />
  <path
    d="M96.4761 164.023C95.8413 163.388 95.8413 162.357 96.4761 161.722C97.1108 161.087 98.1417 161.087 98.7765 161.722L106.901 169.847C107.536 170.482 107.536 171.513 106.901 172.148L98.7765 180.273C98.1417 180.907 97.1108 180.907 96.4761 180.273C95.8413 179.638 95.8413 178.607 96.4761 177.972L103.448 171L96.4761 164.023ZM107.374 177.5H120.374C121.273 177.5 121.999 178.226 121.999 179.125C121.999 180.024 121.273 180.75 120.374 180.75H107.374C106.475 180.75 105.749 180.024 105.749 179.125C105.749 178.226 106.475 177.5 107.374 177.5Z"
    fill="#6BCB77" />
</svg>